
<svg width="85" height="17" viewBox="0 0 85 17" fill="none" xmlns="http://www.w3.org/2000/svg"><path d="M8.5 0L10.4084 5.87336L16.584 5.87336L11.5878 9.50329L13.4962 15.3766L8.5 11.7467L3.50383 15.3766L5.41219 9.50329L0.416019 5.87336L6.59163 5.87336L8.5 0Z" fill="#FFB23C"></path><path d="M25.5 0L27.4084 5.87336L33.584 5.87336L28.5878 9.50329L30.4962 15.3766L25.5 11.7467L20.5038 15.3766L22.4122 9.50329L17.416 5.87336L23.5916 5.87336L25.5 0Z" fill="#FFB23C"></path><path d="M42.5 0L44.4084 5.87336L50.584 5.87336L45.5878 9.50329L47.4962 15.3766L42.5 11.7467L37.5038 15.3766L39.4122 9.50329L34.416 5.87336L40.5916 5.87336L42.5 0Z" fill="#FFB23C"></path><path d="M76.5 0L78.4084 5.87336L84.584 5.87336L79.5878 9.50329L81.4962 15.3766L76.5 11.7467L71.5038 15.3766L73.4122 9.50329L68.416 5.87336L74.5916 5.87336L76.5 0Z" fill="#FFB23C"></path><path d="M59.5 0L61.4084 5.87336L67.584 5.87336L62.5878 9.50329L64.4962 15.3766L59.5 11.7467L54.5038 15.3766L56.4122 9.50329L51.416 5.87336L57.5916 5.87336L59.5 0Z" fill="#FFB23C"></path></svg>